<?xml version="1.0" standalone="no"?>
<!DOCTYPE svg PUBLIC "-//W3C//DTD SVG 20010904//EN"
 "http://www.w3.org/TR/2001/REC-SVG-20010904/DTD/svg10.dtd">
<svg version="1.0" xmlns="http://www.w3.org/2000/svg"
 width="2560.000000pt" height="305.000000pt" viewBox="0 0 2560.000000 305.000000"
 preserveAspectRatio="xMidYMid meet">

<g transform="translate(0.000000,305.000000) scale(0.100000,-0.100000)"
fill="#000000" stroke="none">
<path d="M610 1525 l0 -815 160 0 160 0 0 195 0 195 1308 0 c832 0 1320 4
1343 10 48 13 118 75 140 124 17 38 19 75 19 486 0 411 -2 448 -19 486 -23 49
-88 107 -140 122 -28 9 -421 12 -1505 12 l-1466 0 0 -815z m2784 469 l26 -27
0 -247 0 -247 -26 -27 -27 -26 -1218 0 -1219 0 0 300 0 300 1219 0 1218 0 27
-26z"/>
<path d="M4305 2321 c-49 -22 -87 -57 -112 -102 -17 -32 -18 -71 -18 -695 l0
-661 30 -48 c22 -36 45 -57 84 -77 l53 -28 1387 0 c868 0 1399 4 1421 10 47
13 106 63 130 111 19 37 20 61 20 694 0 633 -1 657 -20 694 -24 48 -83 98
-130 111 -22 6 -552 10 -1420 10 -1324 0 -1387 -1 -1425 -19z m2674 -327 c21
-26 21 -37 21 -469 0 -432 0 -443 -21 -469 l-20 -26 -1215 0 c-1201 0 -1214 0
-1234 20 -19 19 -20 33 -20 475 0 442 1 456 20 475 20 20 33 20 1234 20 l1215
0 20 -26z"/>
<path d="M7720 1525 l0 -815 160 0 160 0 0 195 0 195 1148 -2 1147 -3 99 -192
99 -193 168 0 c93 0 169 3 169 6 0 4 -43 90 -95 192 -52 102 -95 188 -95 192
0 4 11 11 25 14 37 9 105 75 126 121 17 37 19 76 19 485 0 409 -2 448 -19 485
-23 51 -89 111 -138 124 -26 8 -502 11 -1505 11 l-1468 0 0 -815z m2777 480
c12 -9 27 -32 33 -53 13 -48 13 -416 0 -464 -21 -73 81 -68 -1272 -68 l-1218
0 0 300 0 300 1218 0 c1076 0 1220 -2 1239 -15z"/>
<path d="M11565 2329 c-45 -13 -100 -63 -124 -112 -20 -41 -21 -59 -21 -363 0
-352 3 -366 66 -426 66 -62 -11 -58 1299 -58 1294 0 1244 2 1259 -52 3 -13 6
-71 6 -129 0 -93 -3 -110 -21 -133 l-20 -26 -1295 0 -1294 0 0 -160 0 -160
1388 0 c1326 0 1389 1 1428 19 53 24 109 91 123 146 18 70 15 589 -4 651 -17
58 -56 104 -113 133 l-42 21 -1203 0 c-1204 0 -1204 0 -1231 21 -26 20 -26 22
-26 153 0 116 2 135 18 149 17 16 123 17 1315 17 l1297 0 0 160 0 160 -1387
-1 c-768 0 -1401 -5 -1418 -10z"/>
<path d="M15075 2321 c-51 -23 -111 -89 -124 -138 -7 -25 -11 -252 -11 -658 0
-406 4 -633 11 -658 13 -49 73 -115 124 -138 38 -18 107 -19 1428 -19 l1387 0
0 160 0 160 -1295 0 -1294 0 -21 22 c-20 21 -20 33 -20 473 0 440 0 452 20
473 l21 22 1294 0 1295 0 0 160 0 160 -1387 0 c-1321 0 -1390 -1 -1428 -19z"/>
<path d="M18370 1525 l0 -815 160 0 160 0 0 330 0 330 1165 0 1165 0 0 -330 0
-330 160 0 160 0 0 815 0 815 -160 0 -160 0 0 -330 0 -330 -1165 0 -1165 0 0
330 0 330 -160 0 -160 0 0 -815z"/>
<path d="M21830 1525 l0 -815 1580 0 1580 0 0 160 0 160 -1420 0 -1420 0 0
170 0 170 1420 0 1420 0 0 155 0 155 -1420 0 -1420 0 0 170 0 170 1420 0 1420
0 0 160 0 160 -1580 0 -1580 0 0 -815z"/>
</g>
</svg>
