<?xml version="1.0" standalone="no"?>
<!DOCTYPE svg PUBLIC "-//W3C//DTD SVG 20010904//EN"
 "http://www.w3.org/TR/2001/REC-SVG-20010904/DTD/svg10.dtd">
<svg version="1.0" xmlns="http://www.w3.org/2000/svg"
 width="241.000000pt" height="300.000000pt" viewBox="0 0 241.000000 300.000000"
 preserveAspectRatio="xMidYMid meet">

<g transform="translate(0.000000,300.000000) scale(0.100000,-0.100000)"
fill="#000000" stroke="none">
<path d="M948 2983 c7 -3 16 -2 19 1 4 3 -2 6 -13 5 -11 0 -14 -3 -6 -6z"/>
<path d="M1438 2983 c7 -3 16 -2 19 1 4 3 -2 6 -13 5 -11 0 -14 -3 -6 -6z"/>
<path d="M848 2973 c7 -3 16 -2 19 1 4 3 -2 6 -13 5 -11 0 -14 -3 -6 -6z"/>
<path d="M1538 2973 c7 -3 16 -2 19 1 4 3 -2 6 -13 5 -11 0 -14 -3 -6 -6z"/>
<path d="M1668 2963 c7 -3 16 -2 19 1 4 3 -2 6 -13 5 -11 0 -14 -3 -6 -6z"/>
<path d="M608 2953 c7 -3 16 -2 19 1 4 3 -2 6 -13 5 -11 0 -14 -3 -6 -6z"/>
<path d="M478 2933 c7 -3 16 -2 19 1 4 3 -2 6 -13 5 -11 0 -14 -3 -6 -6z"/>
<path d="M1158 2853 c17 -2 47 -2 65 0 17 2 3 4 -33 4 -36 0 -50 -2 -32 -4z"/>
<path d="M968 2843 c6 -2 18 -2 25 0 6 3 1 5 -13 5 -14 0 -19 -2 -12 -5z"/>
<path d="M1398 2843 c6 -2 18 -2 25 0 6 3 1 5 -13 5 -14 0 -19 -2 -12 -5z"/>
<path d="M808 2833 c7 -3 16 -2 19 1 4 3 -2 6 -13 5 -11 0 -14 -3 -6 -6z"/>
<path d="M1558 2833 c7 -3 16 -2 19 1 4 3 -2 6 -13 5 -11 0 -14 -3 -6 -6z"/>
<path d="M648 2813 c7 -3 16 -2 19 1 4 3 -2 6 -13 5 -11 0 -14 -3 -6 -6z"/>
<path d="M1168 2803 c23 -2 59 -2 80 0 20 2 1 4 -43 4 -44 0 -61 -2 -37 -4z"/>
<path d="M978 2793 c6 -2 18 -2 25 0 6 3 1 5 -13 5 -14 0 -19 -2 -12 -5z"/>
<path d="M1408 2793 c7 -3 16 -2 19 1 4 3 -2 6 -13 5 -11 0 -14 -3 -6 -6z"/>
<path d="M718 2773 c7 -3 16 -2 19 1 4 3 -2 6 -13 5 -11 0 -14 -3 -6 -6z"/>
<path d="M1053 2763 c9 -2 23 -2 30 0 6 3 -1 5 -18 5 -16 0 -22 -2 -12 -5z"/>
<path d="M1303 2763 c9 -2 23 -2 30 0 6 3 -1 5 -18 5 -16 0 -22 -2 -12 -5z"/>
<path d="M1988 2763 c6 -2 18 -2 25 0 6 3 1 5 -13 5 -14 0 -19 -2 -12 -5z"/>
<path d="M928 2753 c6 -2 18 -2 25 0 6 3 1 5 -13 5 -14 0 -19 -2 -12 -5z"/>
<path d="M1428 2753 c7 -3 16 -2 19 1 4 3 -2 6 -13 5 -11 0 -14 -3 -6 -6z"/>
<path d="M1788 2753 c7 -3 16 -2 19 1 4 3 -2 6 -13 5 -11 0 -14 -3 -6 -6z"/>
<path d="M2391 2734 c0 -11 3 -14 6 -6 3 7 2 16 -1 19 -3 4 -6 -2 -5 -13z"/>
<path d="M11 2724 c0 -11 3 -14 6 -6 3 7 2 16 -1 19 -3 4 -6 -2 -5 -13z"/>
<path d="M218 2733 c7 -3 16 -2 19 1 4 3 -2 6 -13 5 -11 0 -14 -3 -6 -6z"/>
<path d="M1618 2733 c7 -3 16 -2 19 1 4 3 -2 6 -13 5 -11 0 -14 -3 -6 -6z"/>
<path d="M1898 2733 c6 -2 18 -2 25 0 6 3 1 5 -13 5 -14 0 -19 -2 -12 -5z"/>
<path d="M1708 2723 c7 -3 16 -2 19 1 4 3 -2 6 -13 5 -11 0 -14 -3 -6 -6z"/>
<path d="M895 2711 c-65 -6 -70 -8 -69 -28 0 -13 1 -52 2 -88 2 -62 3 -65 27
-65 22 0 25 4 25 34 l0 33 67 6 c38 3 71 3 75 0 5 -2 8 -17 8 -34 0 -22 5 -29
20 -29 17 0 19 7 18 78 0 42 -5 83 -10 90 -11 12 -39 13 -163 3z m113 -49 c2
-8 -10 -12 -36 -12 -22 0 -54 -3 -71 -6 -24 -5 -31 -3 -31 9 0 12 13 17 58 20
71 4 75 3 80 -11z"/>
<path d="M1112 2708 c-16 -16 -16 -70 0 -86 7 -7 44 -12 95 -12 49 0 83 -4 83
-10 0 -6 -38 -10 -95 -10 -95 0 -95 0 -95 -25 l0 -25 106 0 c123 0 144 8 144
53 0 49 -14 57 -106 57 -119 0 -116 19 3 22 93 3 98 4 101 26 3 22 2 22 -110
22 -75 0 -118 -4 -126 -12z"/>
<path d="M1778 2713 c7 -3 16 -2 19 1 4 3 -2 6 -13 5 -11 0 -14 -3 -6 -6z"/>
<path d="M1988 2713 c7 -3 16 -2 19 1 4 3 -2 6 -13 5 -11 0 -14 -3 -6 -6z"/>
<path d="M1390 2684 c-12 -31 -13 -114 -1 -132 4 -8 44 -17 97 -22 125 -13
124 -14 124 14 0 22 -4 24 -87 32 l-88 9 -3 39 -3 39 96 -7 97 -7 -4 23 c-4
27 -43 37 -151 37 -64 1 -68 -1 -77 -25z"/>
<path d="M2028 2703 c7 -3 16 -2 19 1 4 3 -2 6 -13 5 -11 0 -14 -3 -6 -6z"/>
<path d="M635 2686 c-33 -6 -66 -15 -72 -19 -16 -10 -17 -104 -3 -141 9 -24
14 -26 62 -25 29 0 77 6 107 12 48 11 56 16 62 41 9 34 1 115 -14 134 -11 15
-61 14 -142 -2z m109 -52 c9 -23 7 -62 -2 -68 -5 -3 -39 -8 -75 -12 l-67 -7 0
41 0 41 48 6 c26 4 52 8 57 10 22 7 33 4 39 -11z"/>
<path d="M1650 2646 c0 -24 -3 -63 -6 -88 -6 -43 -5 -45 20 -50 21 -4 26 -1
26 16 0 41 11 46 75 36 33 -5 64 -10 69 -10 4 0 5 -15 2 -34 -6 -29 -3 -35 14
-41 12 -4 24 -4 27 -1 10 10 21 171 13 179 -17 19 -45 2 -48 -29 l-3 -31 -67
11 -67 11 -3 38 c-3 32 -7 37 -28 37 -22 0 -24 -4 -24 -44z"/>
<path d="M1968 2673 c7 -3 16 -2 19 1 4 3 -2 6 -13 5 -11 0 -14 -3 -6 -6z"/>
<path d="M2138 2673 c7 -3 16 -2 19 1 4 3 -2 6 -13 5 -11 0 -14 -3 -6 -6z"/>
<path d="M288 2653 c7 -3 16 -2 19 1 4 3 -2 6 -13 5 -11 0 -14 -3 -6 -6z"/>
<path d="M2048 2653 c7 -3 16 -2 19 1 4 3 -2 6 -13 5 -11 0 -14 -3 -6 -6z"/>
<path d="M250 2630 c0 -11 2 -20 4 -20 2 0 6 9 9 20 3 11 1 20 -4 20 -5 0 -9
-9 -9 -20z"/>
<path d="M365 2631 c-65 -16 -70 -19 -69 -44 3 -141 8 -162 37 -151 11 4 17
18 17 40 0 36 -10 31 119 64 40 10 51 24 51 64 0 49 -36 56 -155 27z m106 -36
c0 -9 -32 -21 -103 -39 -21 -5 -28 -3 -28 8 0 9 22 20 58 29 62 16 74 17 73 2z"/>
<path d="M2088 2643 c7 -3 16 -2 19 1 4 3 -2 6 -13 5 -11 0 -14 -3 -6 -6z"/>
<path d="M201 2624 c0 -11 3 -14 6 -6 3 7 2 16 -1 19 -3 4 -6 -2 -5 -13z"/>
<path d="M1927 2633 c-3 -5 -8 -45 -11 -90 -8 -92 -18 -81 97 -108 86 -19 87
-19 87 5 0 19 -9 23 -102 46 -16 3 -28 12 -28 20 0 8 1 14 3 14 1 0 27 -7 57
-15 71 -19 80 -19 80 4 0 13 -10 20 -32 25 -75 15 -108 28 -108 41 0 8 1 15 3
15 1 0 27 -7 57 -15 74 -20 90 -19 90 5 0 11 -2 20 -4 20 -2 0 -39 9 -82 20
-88 22 -101 23 -107 13z"/>
<path d="M2241 2584 c0 -11 3 -14 6 -6 3 7 2 16 -1 19 -3 4 -6 -2 -5 -13z"/>
<path d="M2151 2574 c0 -11 3 -14 6 -6 3 7 2 16 -1 19 -3 4 -6 -2 -5 -13z"/>
<path d="M162 2560 c0 -14 2 -19 5 -12 2 6 2 18 0 25 -3 6 -5 1 -5 -13z"/>
<path d="M212 2540 c0 -14 2 -19 5 -12 2 6 2 18 0 25 -3 6 -5 1 -5 -13z"/>
<path d="M2191 2514 c0 -11 3 -14 6 -6 3 7 2 16 -1 19 -3 4 -6 -2 -5 -13z"/>
<path d="M2141 2504 c0 -11 3 -14 6 -6 3 7 2 16 -1 19 -3 4 -6 -2 -5 -13z"/>
<path d="M2231 2494 c0 -11 3 -14 6 -6 3 7 2 16 -1 19 -3 4 -6 -2 -5 -13z"/>
<path d="M1058 2493 c12 -2 30 -2 40 0 9 3 -1 5 -23 4 -22 0 -30 -2 -17 -4z"/>
<path d="M1263 2493 c9 -2 25 -2 35 0 9 3 1 5 -18 5 -19 0 -27 -2 -17 -5z"/>
<path d="M858 2483 c7 -3 16 -2 19 1 4 3 -2 6 -13 5 -11 0 -14 -3 -6 -6z"/>
<path d="M1488 2483 c7 -3 16 -2 19 1 4 3 -2 6 -13 5 -11 0 -14 -3 -6 -6z"/>
<path d="M2371 2474 c0 -11 3 -14 6 -6 3 7 2 16 -1 19 -3 4 -6 -2 -5 -13z"/>
<path d="M31 2454 c0 -11 3 -14 6 -6 3 7 2 16 -1 19 -3 4 -6 -2 -5 -13z"/>
<path d="M1108 2463 c18 -2 45 -2 60 0 15 2 0 4 -33 4 -33 0 -45 -2 -27 -4z"/>
<path d="M1230 2365 l0 -105 449 0 449 0 4 36 c5 44 4 45 -148 83 -201 51
-507 91 -696 91 l-58 0 0 -105z"/>
<path d="M1648 2463 c7 -3 16 -2 19 1 4 3 -2 6 -13 5 -11 0 -14 -3 -6 -6z"/>
<path d="M868 2453 c6 -2 18 -2 25 0 6 3 1 5 -13 5 -14 0 -19 -2 -12 -5z"/>
<path d="M1878 2423 c7 -3 16 -2 19 1 4 3 -2 6 -13 5 -11 0 -14 -3 -6 -6z"/>
<path d="M2231 2414 c0 -11 3 -14 6 -6 3 7 2 16 -1 19 -3 4 -6 -2 -5 -13z"/>
<path d="M270 2406 c0 -8 4 -17 9 -20 5 -4 7 3 4 14 -6 23 -13 26 -13 6z"/>
<path d="M308 2393 c7 -3 16 -2 19 1 4 3 -2 6 -13 5 -11 0 -14 -3 -6 -6z"/>
<path d="M2008 2393 c7 -3 16 -2 19 1 4 3 -2 6 -13 5 -11 0 -14 -3 -6 -6z"/>
<path d="M221 2374 c0 -11 3 -14 6 -6 3 7 2 16 -1 19 -3 4 -6 -2 -5 -13z"/>
<path d="M408 2383 c6 -2 18 -2 25 0 6 3 1 5 -13 5 -14 0 -19 -2 -12 -5z"/>
<path d="M2048 2383 c7 -3 16 -2 19 1 4 3 -2 6 -13 5 -11 0 -14 -3 -6 -6z"/>
<path d="M2120 2370 c-13 -8 -12 -10 3 -10 9 0 17 5 17 10 0 12 -1 12 -20 0z"/>
<path d="M328 2363 c6 -2 18 -2 25 0 6 3 1 5 -13 5 -14 0 -19 -2 -12 -5z"/>
<path d="M2181 2354 c0 -11 3 -14 6 -6 3 7 2 16 -1 19 -3 4 -6 -2 -5 -13z"/>
<path d="M288 2353 c7 -3 16 -2 19 1 4 3 -2 6 -13 5 -11 0 -14 -3 -6 -6z"/>
<path d="M574 2328 c-41 -36 -71 -95 -82 -160 -7 -39 -9 -42 -41 -42 -31 -1
-36 -5 -50 -43 -18 -50 -12 -58 46 -68 40 -6 44 -5 60 24 32 55 230 141 327
141 58 0 110 -17 146 -46 46 -39 39 -3 -10 50 -42 46 -44 68 -9 87 11 5 19 14
19 19 0 14 -61 -7 -85 -30 -24 -23 -75 -27 -75 -6 0 7 11 30 25 51 15 20 24
39 22 41 -11 11 -75 -37 -94 -71 -20 -35 -54 -60 -74 -53 -11 4 28 88 53 116
28 28 6 30 -40 2 -35 -22 -68 -69 -77 -112 -6 -27 -55 -64 -74 -56 -16 6 20
113 50 151 38 48 15 51 -37 5z"/>
<path d="M2221 2324 c0 -11 3 -14 6 -6 3 7 2 16 -1 19 -3 4 -6 -2 -5 -13z"/>
<path d="M181 2304 c0 -11 3 -14 6 -6 3 7 2 16 -1 19 -3 4 -6 -2 -5 -13z"/>
<path d="M2361 2294 c0 -11 3 -14 6 -6 3 7 2 16 -1 19 -3 4 -6 -2 -5 -13z"/>
<path d="M41 2274 c0 -11 3 -14 6 -6 3 7 2 16 -1 19 -3 4 -6 -2 -5 -13z"/>
<path d="M2171 2264 c0 -11 3 -14 6 -6 3 7 2 16 -1 19 -3 4 -6 -2 -5 -13z"/>
<path d="M281 2224 c0 -11 3 -14 6 -6 3 7 2 16 -1 19 -3 4 -6 -2 -5 -13z"/>
<path d="M1240 2105 l0 -135 433 2 432 3 7 60 c3 33 8 92 10 130 l3 70 -442 3
-443 2 0 -135z"/>
<path d="M231 2214 c0 -11 3 -14 6 -6 3 7 2 16 -1 19 -3 4 -6 -2 -5 -13z"/>
<path d="M1182 2103 c1 -110 5 -97 10 35 2 39 0 72 -4 72 -5 0 -7 -48 -6 -107z"/>
<path d="M51 2184 c0 -11 3 -14 6 -6 3 7 2 16 -1 19 -3 4 -6 -2 -5 -13z"/>
<path d="M2171 2184 c0 -11 3 -14 6 -6 3 7 2 16 -1 19 -3 4 -6 -2 -5 -13z"/>
<path d="M2211 2154 c0 -11 3 -14 6 -6 3 7 2 16 -1 19 -3 4 -6 -2 -5 -13z"/>
<path d="M192 2130 c0 -14 2 -19 5 -12 2 6 2 18 0 25 -3 6 -5 1 -5 -13z"/>
<path d="M291 2134 c0 -11 3 -14 6 -6 3 7 2 16 -1 19 -3 4 -6 -2 -5 -13z"/>
<path d="M241 2124 c0 -11 3 -14 6 -6 3 7 2 16 -1 19 -3 4 -6 -2 -5 -13z"/>
<path d="M2161 2104 c0 -11 3 -14 6 -6 3 7 2 16 -1 19 -3 4 -6 -2 -5 -13z"/>
<path d="M2201 2064 c0 -11 3 -14 6 -6 3 7 2 16 -1 19 -3 4 -6 -2 -5 -13z"/>
<path d="M201 2044 c0 -11 3 -14 6 -6 3 7 2 16 -1 19 -3 4 -6 -2 -5 -13z"/>
<path d="M592 2040 c-32 -20 -75 -94 -87 -153 -4 -23 -9 -26 -29 -21 -19 4
-27 -1 -44 -30 -28 -47 -20 -62 31 -69 43 -6 67 5 67 29 0 32 225 112 278 99
20 -5 22 -2 22 29 0 27 -3 34 -15 30 -24 -10 -18 21 11 55 14 17 21 31 14 31
-23 0 -66 -30 -85 -59 -19 -30 -51 -49 -62 -38 -9 9 7 46 34 77 34 41 22 49
-26 17 -24 -16 -47 -43 -61 -74 -13 -26 -24 -49 -24 -50 -1 -1 -14 -5 -29 -8
l-28 -7 20 52 c11 29 33 66 48 82 32 33 14 38 -35 8z"/>
<path d="M2341 2034 c0 -11 3 -14 6 -6 3 7 2 16 -1 19 -3 4 -6 -2 -5 -13z"/>
<path d="M62 2010 c0 -14 2 -19 5 -12 2 6 2 18 0 25 -3 6 -5 1 -5 -13z"/>
<path d="M2201 1984 c0 -11 3 -14 6 -6 3 7 2 16 -1 19 -3 4 -6 -2 -5 -13z"/>
<path d="M301 1974 c0 -11 3 -14 6 -6 3 7 2 16 -1 19 -3 4 -6 -2 -5 -13z"/>
<path d="M1180 1979 c0 -5 5 -7 10 -4 6 3 10 8 10 11 0 2 -4 4 -10 4 -5 0 -10
-5 -10 -11z"/>
<path d="M251 1964 c0 -11 3 -14 6 -6 3 7 2 16 -1 19 -3 4 -6 -2 -5 -13z"/>
<path d="M1590 1835 l0 -115 249 0 250 0 5 53 c3 28 8 80 10 115 l6 62 -260 0
-260 0 0 -115z"/>
<path d="M2151 1934 c0 -11 3 -14 6 -6 3 7 2 16 -1 19 -3 4 -6 -2 -5 -13z"/>
<path d="M2191 1894 c0 -11 3 -14 6 -6 3 7 2 16 -1 19 -3 4 -6 -2 -5 -13z"/>
<path d="M211 1874 c0 -11 3 -14 6 -6 3 7 2 16 -1 19 -3 4 -6 -2 -5 -13z"/>
<path d="M261 1874 c0 -11 3 -14 6 -6 3 7 2 16 -1 19 -3 4 -6 -2 -5 -13z"/>
<path d="M906 1883 c-13 -13 -5 -42 14 -48 11 -3 20 -11 20 -16 0 -6 -9 -7
-21 -4 -16 5 -20 3 -17 -6 3 -8 15 -14 29 -14 32 0 37 30 9 53 l-22 18 36 1
c35 1 36 0 36 -38 0 -21 5 -39 10 -39 6 0 10 18 10 40 0 22 5 40 10 40 6 0 10
-11 10 -24 0 -39 11 -56 35 -56 24 0 35 17 35 56 0 13 5 24 10 24 6 0 10 -18
10 -40 0 -29 4 -40 15 -40 11 0 15 11 15 41 0 36 2 40 23 37 18 -2 23 -10 25
-40 4 -51 22 -49 22 2 0 51 18 53 22 3 3 -33 7 -38 31 -41 23 -3 27 0 27 22 0
16 -6 26 -15 26 -9 0 -12 -6 -9 -15 4 -8 1 -15 -5 -15 -6 0 -11 14 -11 31 0
26 3 29 21 24 16 -5 20 -3 17 6 -4 11 -31 14 -114 14 l-109 0 -2 -30 c-2 -49
-6 -52 -12 -10 l-6 40 -71 2 c-39 1 -74 -1 -78 -4z"/>
<path d="M1331 1868 c-25 -69 -22 -94 8 -65 11 10 14 10 18 0 7 -20 23 -15 23
6 0 27 -21 81 -31 81 -5 0 -13 -10 -18 -22z m24 -28 c3 -5 1 -10 -4 -10 -6 0
-11 5 -11 10 0 6 2 10 4 10 3 0 8 -4 11 -10z"/>
<path d="M1394 1876 c-3 -8 -4 -29 -2 -47 4 -38 28 -53 29 -17 l0 23 9 -22 c5
-13 14 -23 19 -23 11 0 9 69 -2 88 -11 16 -46 15 -53 -2z m46 -16 c0 -5 -7
-10 -15 -10 -8 0 -15 5 -15 10 0 6 7 10 15 10 8 0 15 -4 15 -10z"/>
<path d="M1460 1880 c0 -5 5 -10 10 -10 6 0 10 -18 10 -40 0 -22 5 -40 10 -40
6 0 10 18 10 40 0 30 4 40 16 40 8 0 12 5 9 10 -3 6 -19 10 -36 10 -16 0 -29
-4 -29 -10z"/>
<path d="M2331 1864 c0 -11 3 -14 6 -6 3 7 2 16 -1 19 -3 4 -6 -2 -5 -13z"/>
<path d="M71 1834 c0 -11 3 -14 6 -6 3 7 2 16 -1 19 -3 4 -6 -2 -5 -13z"/>
<path d="M311 1804 c0 -11 3 -14 6 -6 3 7 2 16 -1 19 -3 4 -6 -2 -5 -13z"/>
<path d="M261 1794 c0 -11 3 -14 6 -6 3 7 2 16 -1 19 -3 4 -6 -2 -5 -13z"/>
<path d="M2321 1774 c0 -11 3 -14 6 -6 3 7 2 16 -1 19 -3 4 -6 -2 -5 -13z"/>
<path d="M1111 1740 c-13 -12 -21 -26 -17 -35 3 -10 -1 -15 -13 -15 -9 0 -28
-11 -40 -24 -22 -24 -22 -25 -4 -35 11 -5 29 -7 41 -4 30 7 28 -3 -8 -44 -16
-18 -30 -42 -30 -52 0 -28 -11 -32 -41 -14 -23 14 -30 14 -43 4 -21 -17 -68
-119 -61 -131 9 -14 35 0 35 20 0 26 30 80 44 80 7 0 18 -11 24 -25 7 -14 19
-28 28 -32 21 -8 -1 -23 -33 -23 -21 0 -23 -5 -23 -54 0 -44 5 -61 24 -83 26
-30 48 -25 28 7 -6 11 -14 37 -18 59 l-6 39 63 -5 c35 -3 71 -9 79 -13 8 -5
36 -11 62 -15 26 -4 47 -10 46 -14 -1 -3 4 -18 12 -33 16 -34 8 -55 -27 -70
-36 -15 -73 -48 -73 -65 0 -18 16 -16 32 5 15 20 40 36 86 57 20 10 32 22 32
35 0 11 2 20 5 20 13 0 65 -31 65 -38 0 -5 -20 -32 -45 -61 -25 -29 -45 -57
-45 -62 0 -18 32 -9 37 11 3 10 14 22 24 25 10 4 19 10 19 15 0 5 12 22 26 39
24 28 25 33 13 66 -11 30 -11 39 4 64 9 16 17 41 17 55 0 23 2 25 25 16 31
-12 58 -2 50 18 -3 8 -1 19 6 22 17 11 1 53 -17 46 -17 -6 -11 7 14 37 9 10
11 17 4 17 -6 0 -9 7 -6 15 5 11 2 13 -12 8 -12 -5 -15 -3 -9 6 5 10 2 11 -14
6 -30 -9 -26 3 4 15 18 7 25 17 25 35 0 15 -4 24 -10 20 -5 -3 -10 -13 -10
-21 0 -8 -8 -14 -17 -14 -10 0 -32 -14 -50 -29 -28 -27 -31 -33 -23 -66 5 -20
17 -43 27 -50 30 -23 3 -39 -33 -20 -16 8 -46 15 -67 15 -35 0 -97 23 -97 36
0 10 28 34 39 34 6 0 11 4 11 9 0 5 8 12 18 14 16 4 16 5 0 6 -20 1 -25 31 -5
31 7 0 13 9 14 20 1 11 -4 20 -13 20 -19 0 -18 10 4 26 15 12 14 13 -10 14
-32 0 -36 14 -10 30 14 9 12 10 -14 7 -22 -2 -30 1 -27 9 3 8 -4 10 -21 7 -17
-4 -26 -1 -26 8 0 10 -3 10 -11 2 -9 -9 -6 -19 10 -42 12 -17 24 -48 26 -68 5
-38 5 -38 -4 -5 -5 18 -21 50 -36 72 -15 21 -24 44 -20 49 10 17 -8 12 -34 -9z"/>
<path d="M81 1734 c0 -11 3 -14 6 -6 3 7 2 16 -1 19 -3 4 -6 -2 -5 -13z"/>
<path d="M321 1724 c0 -11 3 -14 6 -6 3 7 2 16 -1 19 -3 4 -6 -2 -5 -13z"/>
<path d="M627 1715 c-14 -14 -28 -38 -32 -53 -8 -31 -23 -52 -37 -52 -13 0 -3
52 16 92 18 35 -1 39 -30 6 -28 -32 -44 -73 -44 -113 0 -30 -3 -35 -24 -35
-25 0 -36 -16 -36 -55 0 -18 7 -24 31 -27 31 -5 59 12 59 35 0 16 88 75 136
92 46 17 103 19 138 5 24 -9 26 -7 26 16 0 13 -7 27 -15 31 -14 5 -14 7 0 23
9 10 15 26 13 36 -3 15 -8 13 -39 -14 -20 -18 -44 -32 -53 -32 -20 0 -20 4 -1
40 10 19 12 30 4 30 -12 0 -58 -46 -75 -75 -22 -38 -29 -3 -7 36 25 46 10 53
-30 14z"/>
<path d="M2181 1724 c0 -11 3 -14 6 -6 3 7 2 16 -1 19 -3 4 -6 -2 -5 -13z"/>
<path d="M272 1710 c0 -14 2 -19 5 -12 2 6 2 18 0 25 -3 6 -5 1 -5 -13z"/>
<path d="M221 1704 c0 -11 3 -14 6 -6 3 7 2 16 -1 19 -3 4 -6 -2 -5 -13z"/>
<path d="M2131 1684 c0 -11 3 -14 6 -6 3 7 2 16 -1 19 -3 4 -6 -2 -5 -13z"/>
<path d="M1590 1560 l0 -130 239 0 239 0 6 103 c4 56 9 114 12 130 l6 27 -251
0 -251 0 0 -130z"/>
<path d="M321 1644 c0 -11 3 -14 6 -6 3 7 2 16 -1 19 -3 4 -6 -2 -5 -13z"/>
<path d="M2171 1634 c0 -11 3 -14 6 -6 3 7 2 16 -1 19 -3 4 -6 -2 -5 -13z"/>
<path d="M231 1614 c0 -11 3 -14 6 -6 3 7 2 16 -1 19 -3 4 -6 -2 -5 -13z"/>
<path d="M2311 1604 c0 -11 3 -14 6 -6 3 7 2 16 -1 19 -3 4 -6 -2 -5 -13z"/>
<path d="M91 1564 c0 -11 3 -14 6 -6 3 7 2 16 -1 19 -3 4 -6 -2 -5 -13z"/>
<path d="M331 1554 c0 -11 3 -14 6 -6 3 7 2 16 -1 19 -3 4 -6 -2 -5 -13z"/>
<path d="M2171 1554 c0 -11 3 -14 6 -6 3 7 2 16 -1 19 -3 4 -6 -2 -5 -13z"/>
<path d="M281 1544 c0 -11 3 -14 6 -6 3 7 2 16 -1 19 -3 4 -6 -2 -5 -13z"/>
<path d="M231 1534 c0 -11 3 -14 6 -6 3 7 2 16 -1 19 -3 4 -6 -2 -5 -13z"/>
<path d="M2121 1524 c0 -11 3 -14 6 -6 3 7 2 16 -1 19 -3 4 -6 -2 -5 -13z"/>
<path d="M2161 1464 c0 -11 3 -14 6 -6 3 7 2 16 -1 19 -3 4 -6 -2 -5 -13z"/>
<path d="M241 1444 c0 -11 3 -14 6 -6 3 7 2 16 -1 19 -3 4 -6 -2 -5 -13z"/>
<path d="M2111 1434 c0 -11 3 -14 6 -6 3 7 2 16 -1 19 -3 4 -6 -2 -5 -13z"/>
<path d="M2301 1424 c0 -11 3 -14 6 -6 3 7 2 16 -1 19 -3 4 -6 -2 -5 -13z"/>
<path d="M101 1384 c0 -11 3 -14 6 -6 3 7 2 16 -1 19 -3 4 -6 -2 -5 -13z"/>
<path d="M356 1303 c3 -43 7 -88 10 -100 l4 -23 255 0 254 0 -19 43 c-11 24
-22 69 -26 100 l-7 57 -238 0 -239 0 6 -77z"/>
<path d="M2111 1354 c0 -11 3 -14 6 -6 3 7 2 16 -1 19 -3 4 -6 -2 -5 -13z"/>
<path d="M1541 1344 c0 -11 3 -14 6 -6 3 7 2 16 -1 19 -3 4 -6 -2 -5 -13z"/>
<path d="M1581 1344 c0 -11 3 -14 6 -6 3 7 2 16 -1 19 -3 4 -6 -2 -5 -13z"/>
<path d="M2291 1334 c0 -11 3 -14 6 -6 3 7 2 16 -1 19 -3 4 -6 -2 -5 -13z"/>
<path d="M301 1294 c0 -11 3 -14 6 -6 3 7 2 16 -1 19 -3 4 -6 -2 -5 -13z"/>
<path d="M2151 1294 c0 -11 3 -14 6 -6 3 7 2 16 -1 19 -3 4 -6 -2 -5 -13z"/>
<path d="M251 1274 c0 -11 3 -14 6 -6 3 7 2 16 -1 19 -3 4 -6 -2 -5 -13z"/>
<path d="M2102 1270 c0 -14 2 -19 5 -12 2 6 2 18 0 25 -3 6 -5 1 -5 -13z"/>
<path d="M881 1264 c0 -11 3 -14 6 -6 3 7 2 16 -1 19 -3 4 -6 -2 -5 -13z"/>
<path d="M1516 1235 c-9 -26 -7 -32 5 -12 6 10 9 21 6 23 -2 3 -7 -2 -11 -11z"/>
<path d="M1556 1225 c-9 -26 -7 -32 5 -12 6 10 9 21 6 23 -2 3 -7 -2 -11 -11z"/>
<path d="M2141 1204 c0 -11 3 -14 6 -6 3 7 2 16 -1 19 -3 4 -6 -2 -5 -13z"/>
<path d="M261 1184 c0 -11 3 -14 6 -6 3 7 2 16 -1 19 -3 4 -6 -2 -5 -13z"/>
<path d="M1443 1134 c-34 -35 -59 -64 -57 -64 9 0 106 94 115 112 13 25 12 23
-58 -48z"/>
<path d="M1530 1170 c-6 -11 -8 -20 -6 -20 3 0 10 9 16 20 6 11 8 20 6 20 -3
0 -10 -9 -16 -20z"/>
<path d="M2281 1164 c0 -11 3 -14 6 -6 3 7 2 16 -1 19 -3 4 -6 -2 -5 -13z"/>
<path d="M370 1128 c0 -36 25 -121 53 -182 l26 -56 365 0 366 0 0 49 0 48 -45
6 c-68 10 -154 55 -207 109 l-47 48 -255 0 -256 0 0 -22z"/>
<path d="M955 1130 c10 -11 20 -20 23 -20 3 0 -3 9 -13 20 -10 11 -20 20 -23
20 -3 0 3 -9 13 -20z"/>
<path d="M1479 1104 c-18 -20 -56 -49 -84 -66 -27 -16 -42 -27 -32 -24 15 5
18 1 15 -22 -2 -22 -9 -28 -37 -32 -28 -4 -36 -11 -43 -35 -11 -42 -3 -55 33
-55 21 0 39 9 58 29 41 44 173 84 281 85 97 1 139 -15 169 -65 23 -38 34 -25
20 24 -6 22 -23 47 -44 63 -36 27 -38 44 -4 44 11 0 17 5 14 10 -9 14 -56 12
-85 -5 -54 -31 -79 -9 -39 34 12 12 19 24 16 27 -9 10 -55 -15 -78 -43 -26
-31 -89 -52 -89 -31 0 7 19 32 42 55 31 32 38 43 25 43 -43 0 -101 -47 -130
-106 -9 -17 -26 -34 -37 -37 -19 -5 -21 -2 -15 26 4 18 12 37 18 42 23 21 71
75 66 75 -3 0 -21 -16 -40 -36z"/>
<path d="M121 1114 c0 -11 3 -14 6 -6 3 7 2 16 -1 19 -3 4 -6 -2 -5 -13z"/>
<path d="M994 1101 c7 -11 46 -35 46 -28 0 3 -12 12 -26 22 -15 9 -23 12 -20
6z"/>
<path d="M2082 1080 c0 -14 2 -19 5 -12 2 6 2 18 0 25 -3 6 -5 1 -5 -13z"/>
<path d="M1080 1050 c8 -5 20 -10 25 -10 6 0 3 5 -5 10 -8 5 -19 10 -25 10 -5
0 -3 -5 5 -10z"/>
<path d="M2021 1034 c0 -11 3 -14 6 -6 3 7 2 16 -1 19 -3 4 -6 -2 -5 -13z"/>
<path d="M1258 1033 c7 -3 16 -2 19 1 4 3 -2 6 -13 5 -11 0 -14 -3 -6 -6z"/>
<path d="M2111 1013 c-1 -6 -4 -20 -7 -30 -5 -17 -5 -17 6 0 6 10 9 23 6 30
-3 9 -5 9 -5 0z"/>
<path d="M1990 953 c-56 -135 -196 -297 -374 -433 -100 -76 -131 -106 -50 -48
109 77 243 199 307 278 62 78 157 243 145 255 -2 3 -15 -21 -28 -52z"/>
<path d="M141 984 c0 -11 3 -14 6 -6 3 7 2 16 -1 19 -3 4 -6 -2 -5 -13z"/>
<path d="M1232 633 c-1 -200 1 -363 6 -363 6 0 6 285 -1 600 -1 69 -4 -38 -5
-237z"/>
<path d="M311 955 c0 -5 6 -21 14 -35 8 -14 14 -20 14 -15 0 6 -6 21 -14 35
-8 14 -14 21 -14 15z"/>
<path d="M361 955 c0 -5 6 -21 14 -35 8 -14 14 -20 14 -15 0 6 -6 21 -14 35
-8 14 -14 21 -14 15z"/>
<path d="M2086 945 c-9 -26 -7 -32 5 -12 6 10 9 21 6 23 -2 3 -7 -2 -11 -11z"/>
<path d="M2012 895 c-12 -25 -20 -45 -17 -45 7 0 47 81 43 86 -3 2 -14 -17
-26 -41z"/>
<path d="M410 854 c12 -23 33 -55 46 -70 14 -16 6 0 -16 35 -48 76 -62 93 -30
35z"/>
<path d="M1524 880 c-12 -5 -35 -26 -50 -47 -59 -78 -93 -70 -39 10 19 27 22
37 11 37 -21 0 -73 -64 -81 -99 -5 -24 -12 -31 -30 -31 -26 0 -48 -30 -43 -57
5 -26 54 -25 72 2 17 25 94 58 164 70 64 10 146 -3 187 -30 49 -34 48 -5 -2
41 l-36 33 24 10 c20 8 21 10 7 16 -9 4 -32 -1 -52 -10 -52 -25 -67 -8 -25 28
l34 29 -30 -7 c-16 -3 -44 -20 -60 -36 -17 -16 -42 -29 -55 -29 -23 0 -23 0
-4 21 10 12 33 30 49 40 30 19 30 19 5 18 -14 0 -35 -4 -46 -9z"/>
<path d="M363 845 c9 -16 23 -39 32 -50 9 -11 7 -2 -6 20 -27 49 -47 72 -26
30z"/>
<path d="M2039 848 c-7 -13 -19 -34 -27 -48 -14 -24 -13 -24 3 -5 20 24 48 75
41 75 -3 0 -11 -10 -17 -22z"/>
<path d="M480 843 c0 -9 46 -69 108 -140 l54 -63 274 0 274 0 0 105 0 105
-355 0 c-195 0 -355 -3 -355 -7z"/>
<path d="M1944 783 c-21 -32 -84 -103 -139 -158 -96 -96 -92 -99 8 -5 64 60
191 220 175 220 -3 0 -22 -26 -44 -57z"/>
<path d="M230 780 c6 -11 13 -20 16 -20 2 0 0 9 -6 20 -6 11 -13 20 -16 20 -2
0 0 -9 6 -20z"/>
<path d="M2155 760 c-9 -16 -13 -30 -11 -30 3 0 12 14 21 30 9 17 13 30 11 30
-3 0 -12 -13 -21 -30z"/>
<path d="M441 727 c71 -104 243 -255 439 -387 94 -62 121 -79 105 -63 -5 6
-57 42 -115 81 -183 124 -330 253 -433 382 -21 26 -20 23 4 -13z"/>
<path d="M1924 683 c-43 -55 -110 -120 -176 -173 -148 -119 -159 -128 -119
-101 133 90 260 209 345 324 52 68 21 38 -50 -50z"/>
<path d="M260 730 c6 -11 13 -20 16 -20 2 0 0 9 -6 20 -6 11 -13 20 -16 20 -2
0 0 -9 6 -20z"/>
<path d="M521 700 c45 -53 209 -198 297 -261 78 -56 43 -23 -63 60 -58 45
-144 121 -192 169 -64 63 -75 72 -42 32z"/>
<path d="M280 696 c0 -2 8 -10 18 -17 15 -13 16 -12 3 4 -13 16 -21 21 -21 13z"/>
<path d="M310 656 c0 -2 8 -10 18 -17 15 -13 16 -12 3 4 -13 16 -21 21 -21 13z"/>
<path d="M1361 639 c-12 -11 -24 -34 -28 -50 -3 -16 -12 -29 -19 -29 -7 0 -19
-10 -25 -22 -9 -18 -8 -24 6 -34 18 -13 45 -9 45 8 0 12 95 55 141 63 23 4 49
1 74 -9 47 -20 55 -14 21 15 -15 13 -24 29 -21 37 4 10 0 12 -12 7 -10 -4 -27
-10 -38 -13 -19 -5 -19 -4 -2 15 9 11 17 23 17 27 0 11 -44 -16 -58 -36 -7
-10 -17 -18 -23 -18 -14 0 -11 22 8 42 11 12 12 18 4 18 -14 0 -71 -57 -71
-71 0 -5 -5 -9 -10 -9 -6 0 -4 15 5 37 19 44 15 49 -14 22z"/>
<path d="M2064 623 c-15 -20 -23 -33 -16 -29 13 8 56 66 49 66 -3 0 -17 -17
-33 -37z"/>
<path d="M355 600 c10 -11 20 -20 23 -20 3 0 -3 9 -13 20 -10 11 -20 20 -23
20 -3 0 3 -9 13 -20z"/>
<path d="M732 572 c124 -106 429 -306 443 -290 1 2 6 74 10 161 l7 157 -246 0
-247 0 33 -28z"/>
<path d="M1960 505 c-41 -41 -72 -75 -69 -75 2 0 38 34 79 75 41 41 72 75 69
75 -2 0 -38 -34 -79 -75z"/>
<path d="M440 505 c35 -36 67 -65 69 -65 3 0 -24 29 -59 65 -35 36 -67 65 -69
65 -3 0 24 -29 59 -65z"/>
<path d="M1630 479 c-80 -62 -101 -83 -38 -39 51 35 116 89 108 89 -3 0 -34
-23 -70 -50z"/>
<path d="M520 436 c0 -2 8 -10 18 -17 15 -13 16 -12 3 4 -13 16 -21 21 -21 13z"/>
<path d="M1472 416 c-46 -33 -53 -43 -14 -20 19 10 38 25 44 32 15 17 8 14
-30 -12z"/>
<path d="M1849 403 l-24 -28 28 24 c25 23 32 31 24 31 -2 0 -14 -12 -28 -27z"/>
<path d="M575 390 c10 -11 20 -20 23 -20 3 0 -3 9 -13 20 -10 11 -20 20 -23
20 -3 0 3 -9 13 -20z"/>
<path d="M892 388 c30 -26 88 -62 88 -55 0 2 -26 21 -57 41 -32 20 -46 27 -31
14z"/>
<path d="M1487 376 c-59 -41 -73 -55 -29 -30 33 19 91 63 82 63 -3 0 -27 -15
-53 -33z"/>
<path d="M610 366 c0 -2 8 -10 18 -17 15 -13 16 -12 3 4 -13 16 -21 21 -21 13z"/>
<path d="M1784 348 l-19 -23 25 20 c14 11 27 21 29 22 2 2 0 3 -6 3 -5 0 -18
-10 -29 -22z"/>
<path d="M1364 344 c-18 -14 -18 -15 4 -4 12 6 22 13 22 15 0 8 -5 6 -26 -11z"/>
<path d="M1512 336 c-46 -33 -53 -43 -14 -20 19 10 38 25 44 32 15 17 8 14
-30 -12z"/>
<path d="M990 326 c0 -3 9 -10 20 -16 11 -6 20 -8 20 -6 0 3 -9 10 -20 16 -11
6 -20 8 -20 6z"/>
<path d="M1314 314 c-18 -14 -18 -15 4 -4 12 6 22 13 22 15 0 8 -5 6 -26 -11z"/>
<path d="M1394 314 c-18 -14 -18 -15 4 -4 12 6 22 13 22 15 0 8 -5 6 -26 -11z"/>
<path d="M1720 299 c-35 -31 -35 -31 -3 -9 18 11 35 25 38 30 10 16 2 11 -35
-21z"/>
<path d="M680 316 c0 -2 8 -10 18 -17 15 -13 16 -12 3 4 -13 16 -21 21 -21 13z"/>
<path d="M1040 296 c0 -3 14 -12 30 -21 17 -9 30 -13 30 -11 0 3 -13 12 -30
21 -16 9 -30 13 -30 11z"/>
<path d="M1344 284 c-18 -14 -18 -15 4 -4 12 6 22 13 22 15 0 8 -5 6 -26 -11z"/>
<path d="M1423 279 c-35 -22 -46 -37 -15 -20 22 13 58 40 52 41 -3 0 -20 -10
-37 -21z"/>
<path d="M1000 266 c0 -3 14 -12 30 -21 17 -9 30 -13 30 -11 0 3 -13 12 -30
21 -16 9 -30 13 -30 11z"/>
<path d="M1140 240 c8 -5 20 -10 25 -10 6 0 3 5 -5 10 -8 5 -19 10 -25 10 -5
0 -3 -5 5 -10z"/>
<path d="M1235 229 c-22 -10 -34 -19 -27 -19 15 0 72 28 72 35 0 6 3 7 -45
-16z"/>
<path d="M1348 234 c-38 -20 -36 -28 2 -9 17 9 30 18 30 20 0 7 -1 6 -32 -11z"/>
<path d="M1070 225 c0 -7 101 -57 106 -53 2 2 -21 16 -51 31 -30 15 -55 25
-55 22z"/>
<path d="M1594 214 c-18 -14 -18 -15 4 -4 12 6 22 13 22 15 0 8 -5 6 -26 -11z"/>
<path d="M840 206 c0 -3 9 -10 20 -16 11 -6 20 -8 20 -6 0 3 -9 10 -20 16 -11
6 -20 8 -20 6z"/>
<path d="M1250 181 c-19 -10 -41 -17 -50 -14 -13 4 -13 3 -1 -5 11 -8 26 -5
53 9 21 11 38 22 38 24 0 7 0 7 -40 -14z"/>
<path d="M890 176 c0 -3 9 -10 20 -16 11 -6 20 -8 20 -6 0 3 -9 10 -20 16 -11
6 -20 8 -20 6z"/>
<path d="M967 129 c7 -7 15 -10 18 -7 3 3 -2 9 -12 12 -14 6 -15 5 -6 -5z"/>
<path d="M1000 116 c0 -3 9 -10 20 -16 11 -6 20 -8 20 -6 0 3 -9 10 -20 16
-11 6 -20 8 -20 6z"/>
<path d="M1384 94 c-18 -14 -18 -15 4 -4 12 6 22 13 22 15 0 8 -5 6 -26 -11z"/>
<path d="M1300 50 c-9 -6 -10 -10 -3 -10 6 0 15 5 18 10 8 12 4 12 -15 0z"/>
</g>
</svg>
